<svg id="b2db048a-d774-49be-8453-fd3892744577" data-name="Layer 1" xmlns="http://www.w3.org/2000/svg" viewBox="0 0 277.8 277.8"><path d="M244.72,105.83a138.9,138.9,0,0,0,0,277.79,86,86,0,0,0,86-86c0-47.49-33.07-86.93-86-86-18.26.33-33.64-12.09-33.07-33.07s21-31.27,40.17-32.11c46.21-2,80.31,25.08,99.81,64.24a130.72,130.72,0,0,1,12.31,55.1c0,27.87-10,52.16-25.78,72.55a3.65,3.65,0,0,0,0,4.74,3.27,3.27,0,0,0,4.63,0c12.08-12,40.84-45.46,40.84-98.38A138.89,138.89,0,0,0,244.72,105.83Zm0,138.89a52.92,52.92,0,1,1-52.91,52.92A52.92,52.92,0,0,1,244.72,244.72Z" transform="translate(-105.83 -105.83)" fill="#3bad4c"/></svg>